<svg width="112" height="30" viewBox="0 0 112 30" fill="none" xmlns="http://www.w3.org/2000/svg">
<rect x="0.5" y="0.5" width="111" height="29" rx="4.5" fill="white" fill-opacity="0.75"/>
<path d="M16.8105 11.6055L14.2617 19H12.7207L15.9316 10.4688H16.916L16.8105 11.6055ZM18.9434 19L16.3887 11.6055L16.2773 10.4688H17.2676L20.4902 19H18.9434ZM18.8203 15.8359V17.002H14.1797V15.8359H18.8203ZM25.1719 17.6875V10H26.5898V19H25.3066L25.1719 17.6875ZM21.0469 15.9004V15.7773C21.0469 15.2969 21.1035 14.8594 21.2168 14.4648C21.3301 14.0664 21.4941 13.7246 21.709 13.4395C21.9238 13.1504 22.1855 12.9297 22.4941 12.7773C22.8027 12.6211 23.1504 12.543 23.5371 12.543C23.9199 12.543 24.2559 12.6172 24.5449 12.7656C24.834 12.9141 25.0801 13.127 25.2832 13.4043C25.4863 13.6777 25.6484 14.0059 25.7695 14.3887C25.8906 14.7676 25.9766 15.1895 26.0273 15.6543V16.0469C25.9766 16.5 25.8906 16.9141 25.7695 17.2891C25.6484 17.6641 25.4863 17.9883 25.2832 18.2617C25.0801 18.5352 24.832 18.7461 24.5391 18.8945C24.25 19.043 23.9121 19.1172 23.5254 19.1172C23.1426 19.1172 22.7969 19.0371 22.4883 18.877C22.1836 18.7168 21.9238 18.4922 21.709 18.2031C21.4941 17.9141 21.3301 17.5742 21.2168 17.1836C21.1035 16.7891 21.0469 16.3613 21.0469 15.9004ZM22.459 15.7773V15.9004C22.459 16.1895 22.4844 16.459 22.5352 16.709C22.5898 16.959 22.6738 17.1797 22.7871 17.3711C22.9004 17.5586 23.0469 17.707 23.2266 17.8164C23.4102 17.9219 23.6289 17.9746 23.8828 17.9746C24.2031 17.9746 24.4668 17.9043 24.6738 17.7637C24.8809 17.623 25.043 17.4336 25.1602 17.1953C25.2812 16.9531 25.3633 16.6836 25.4062 16.3867V15.3262C25.3828 15.0957 25.334 14.8809 25.2598 14.6816C25.1895 14.4824 25.0938 14.3086 24.9727 14.1602C24.8516 14.0078 24.7012 13.8906 24.5215 13.8086C24.3457 13.7227 24.1367 13.6797 23.8945 13.6797C23.6367 13.6797 23.418 13.7344 23.2383 13.8438C23.0586 13.9531 22.9102 14.1035 22.793 14.2949C22.6797 14.4863 22.5957 14.709 22.541 14.9629C22.4863 15.2168 22.459 15.4883 22.459 15.7773ZM31.9336 17.6875V10H33.3516V19H32.0684L31.9336 17.6875ZM27.8086 15.9004V15.7773C27.8086 15.2969 27.8652 14.8594 27.9785 14.4648C28.0918 14.0664 28.2559 13.7246 28.4707 13.4395C28.6855 13.1504 28.9473 12.9297 29.2559 12.7773C29.5645 12.6211 29.9121 12.543 30.2988 12.543C30.6816 12.543 31.0176 12.6172 31.3066 12.7656C31.5957 12.9141 31.8418 13.127 32.0449 13.4043C32.248 13.6777 32.4102 14.0059 32.5312 14.3887C32.6523 14.7676 32.7383 15.1895 32.7891 15.6543V16.0469C32.7383 16.5 32.6523 16.9141 32.5312 17.2891C32.4102 17.6641 32.248 17.9883 32.0449 18.2617C31.8418 18.5352 31.5938 18.7461 31.3008 18.8945C31.0117 19.043 30.6738 19.1172 30.2871 19.1172C29.9043 19.1172 29.5586 19.0371 29.25 18.877C28.9453 18.7168 28.6855 18.4922 28.4707 18.2031C28.2559 17.9141 28.0918 17.5742 27.9785 17.1836C27.8652 16.7891 27.8086 16.3613 27.8086 15.9004ZM29.2207 15.7773V15.9004C29.2207 16.1895 29.2461 16.459 29.2969 16.709C29.3516 16.959 29.4355 17.1797 29.5488 17.3711C29.6621 17.5586 29.8086 17.707 29.9883 17.8164C30.1719 17.9219 30.3906 17.9746 30.6445 17.9746C30.9648 17.9746 31.2285 17.9043 31.4355 17.7637C31.6426 17.623 31.8047 17.4336 31.9219 17.1953C32.043 16.9531 32.125 16.6836 32.168 16.3867V15.3262C32.1445 15.0957 32.0957 14.8809 32.0215 14.6816C31.9512 14.4824 31.8555 14.3086 31.7344 14.1602C31.6133 14.0078 31.4629 13.8906 31.2832 13.8086C31.1074 13.7227 30.8984 13.6797 30.6562 13.6797C30.3984 13.6797 30.1797 13.7344 30 13.8438C29.8203 13.9531 29.6719 14.1035 29.5547 14.2949C29.4414 14.4863 29.3574 14.709 29.3027 14.9629C29.248 15.2168 29.2207 15.4883 29.2207 15.7773ZM41.2793 11.6055L38.7305 19H37.1895L40.4004 10.4688H41.3848L41.2793 11.6055ZM43.4121 19L40.8574 11.6055L40.7461 10.4688H41.7363L44.959 19H43.4121ZM43.2891 15.8359V17.002H38.6484V15.8359H43.2891ZM49.6406 17.6875V10H51.0586V19H49.7754L49.6406 17.6875ZM45.5156 15.9004V15.7773C45.5156 15.2969 45.5723 14.8594 45.6855 14.4648C45.7988 14.0664 45.9629 13.7246 46.1777 13.4395C46.3926 13.1504 46.6543 12.9297 46.9629 12.7773C47.2715 12.6211 47.6191 12.543 48.0059 12.543C48.3887 12.543 48.7246 12.6172 49.0137 12.7656C49.3027 12.9141 49.5488 13.127 49.752 13.4043C49.9551 13.6777 50.1172 14.0059 50.2383 14.3887C50.3594 14.7676 50.4453 15.1895 50.4961 15.6543V16.0469C50.4453 16.5 50.3594 16.9141 50.2383 17.2891C50.1172 17.6641 49.9551 17.9883 49.752 18.2617C49.5488 18.5352 49.3008 18.7461 49.0078 18.8945C48.7188 19.043 48.3809 19.1172 47.9941 19.1172C47.6113 19.1172 47.2656 19.0371 46.957 18.877C46.6523 18.7168 46.3926 18.4922 46.1777 18.2031C45.9629 17.9141 45.7988 17.5742 45.6855 17.1836C45.5723 16.7891 45.5156 16.3613 45.5156 15.9004ZM46.9277 15.7773V15.9004C46.9277 16.1895 46.9531 16.459 47.0039 16.709C47.0586 16.959 47.1426 17.1797 47.2559 17.3711C47.3691 17.5586 47.5156 17.707 47.6953 17.8164C47.8789 17.9219 48.0977 17.9746 48.3516 17.9746C48.6719 17.9746 48.9355 17.9043 49.1426 17.7637C49.3496 17.623 49.5117 17.4336 49.6289 17.1953C49.75 16.9531 49.832 16.6836 49.875 16.3867V15.3262C49.8516 15.0957 49.8027 14.8809 49.7285 14.6816C49.6582 14.4824 49.5625 14.3086 49.4414 14.1602C49.3203 14.0078 49.1699 13.8906 48.9902 13.8086C48.8145 13.7227 48.6055 13.6797 48.3633 13.6797C48.1055 13.6797 47.8867 13.7344 47.707 13.8438C47.5273 13.9531 47.3789 14.1035 47.2617 14.2949C47.1484 14.4863 47.0645 14.709 47.0098 14.9629C46.9551 15.2168 46.9277 15.4883 46.9277 15.7773ZM53.9473 13.9492V19H52.5352V12.6602H53.8652L53.9473 13.9492ZM53.7188 15.5957L53.2383 15.5898C53.2383 15.1523 53.293 14.748 53.4023 14.377C53.5117 14.0059 53.6719 13.6836 53.8828 13.4102C54.0938 13.1328 54.3555 12.9199 54.668 12.7715C54.9844 12.6191 55.3496 12.543 55.7637 12.543C56.0527 12.543 56.3164 12.5859 56.5547 12.6719C56.7969 12.7539 57.0059 12.8848 57.1816 13.0645C57.3613 13.2441 57.498 13.4746 57.5918 13.7559C57.6895 14.0371 57.7383 14.377 57.7383 14.7754V19H56.3262V14.8984C56.3262 14.5898 56.2793 14.3477 56.1855 14.1719C56.0957 13.9961 55.9648 13.8711 55.793 13.7969C55.625 13.7188 55.4238 13.6797 55.1895 13.6797C54.9238 13.6797 54.6973 13.7305 54.5098 13.832C54.3262 13.9336 54.1758 14.0723 54.0586 14.248C53.9414 14.4238 53.8555 14.627 53.8008 14.8574C53.7461 15.0879 53.7188 15.334 53.7188 15.5957ZM57.6504 15.2207L56.9883 15.3672C56.9883 14.9844 57.041 14.623 57.1465 14.2832C57.2559 13.9395 57.4141 13.6387 57.6211 13.3809C57.832 13.1191 58.0918 12.9141 58.4004 12.7656C58.709 12.6172 59.0625 12.543 59.4609 12.543C59.7852 12.543 60.0742 12.5879 60.3281 12.6777C60.5859 12.7637 60.8047 12.9004 60.9844 13.0879C61.1641 13.2754 61.3008 13.5195 61.3945 13.8203C61.4883 14.1172 61.5352 14.4766 61.5352 14.8984V19H60.1172V14.8926C60.1172 14.5723 60.0703 14.3242 59.9766 14.1484C59.8867 13.9727 59.7578 13.8516 59.5898 13.7852C59.4219 13.7148 59.2207 13.6797 58.9863 13.6797C58.7676 13.6797 58.5742 13.7207 58.4062 13.8027C58.2422 13.8809 58.1035 13.9922 57.9902 14.1367C57.877 14.2773 57.791 14.4395 57.7324 14.623C57.6777 14.8066 57.6504 15.0059 57.6504 15.2207ZM64.5 12.6602V19H63.082V12.6602H64.5ZM62.9883 10.9961C62.9883 10.7812 63.0586 10.6035 63.1992 10.4629C63.3438 10.3184 63.543 10.2461 63.7969 10.2461C64.0469 10.2461 64.2441 10.3184 64.3887 10.4629C64.5332 10.6035 64.6055 10.7812 64.6055 10.9961C64.6055 11.207 64.5332 11.3828 64.3887 11.5234C64.2441 11.6641 64.0469 11.7344 63.7969 11.7344C63.543 11.7344 63.3438 11.6641 63.1992 11.5234C63.0586 11.3828 62.9883 11.207 62.9883 10.9961ZM67.4473 14.0137V19H66.0352V12.6602H67.3652L67.4473 14.0137ZM67.1953 15.5957L66.7383 15.5898C66.7422 15.1406 66.8047 14.7285 66.9258 14.3535C67.0508 13.9785 67.2227 13.6562 67.4414 13.3867C67.6641 13.1172 67.9297 12.9102 68.2383 12.7656C68.5469 12.6172 68.8906 12.543 69.2695 12.543C69.5742 12.543 69.8496 12.5859 70.0957 12.6719C70.3457 12.7539 70.5586 12.8887 70.7344 13.0762C70.9141 13.2637 71.0508 13.5078 71.1445 13.8086C71.2383 14.1055 71.2852 14.4707 71.2852 14.9043V19H69.8672V14.8984C69.8672 14.5938 69.8223 14.3535 69.7324 14.1777C69.6465 13.998 69.5195 13.8711 69.3516 13.7969C69.1875 13.7188 68.9824 13.6797 68.7363 13.6797C68.4941 13.6797 68.2773 13.7305 68.0859 13.832C67.8945 13.9336 67.7324 14.0723 67.5996 14.248C67.4707 14.4238 67.3711 14.627 67.3008 14.8574C67.2305 15.0879 67.1953 15.334 67.1953 15.5957Z" fill="#373867"/>
<rect x="0.5" y="0.5" width="111" height="29" rx="4.5" stroke="#373867"/>
<path fill-rule="evenodd" clip-rule="evenodd" d="M94 8C94.5523 8 95 8.44772 95 9V14H100C100.552 14 101 14.4477 101 15C101 15.5523 100.552 16 100 16H95V21C95 21.5523 94.5523 22 94 22C93.4477 22 93 21.5523 93 21V16H88C87.4477 16 87 15.5523 87 15C87 14.4477 87.4477 14 88 14H93V9C93 8.44772 93.4477 8 94 8Z" fill="#373867"/>
</svg>
