<svg width="13" height="14" viewBox="0 0 13 14" fill="none" xmlns="http://www.w3.org/2000/svg">
<path d="M11.7465 0.870222H8.48381L8.22819 0.361626C8.17401 0.252915 8.09058 0.161476 7.98729 0.0975917C7.88399 0.0337069 7.76492 -9.03283e-05 7.64347 3.30806e-07H4.53542C4.41457 -0.000122049 4.29611 0.0337133 4.19355 0.0976503C4.09099 0.161587 4.00846 0.253054 3.95535 0.361626L3.69818 0.870222H0.435057C0.319673 0.870222 0.209014 0.916064 0.127425 0.997663C0.0458363 1.07926 0 1.18993 0 1.30533L0 2.17555C0 2.29095 0.0458363 2.40162 0.127425 2.48322C0.209014 2.56482 0.319673 2.61066 0.435057 2.61066H11.7465C11.8619 2.61066 11.9726 2.56482 12.0542 2.48322C12.1358 2.40162 12.1816 2.29095 12.1816 2.17555V1.30533C12.1816 1.18993 12.1358 1.07926 12.0542 0.997663C11.9726 0.916064 11.8619 0.870222 11.7465 0.870222ZM1.44671 12.6998C1.46747 13.0312 1.61372 13.3422 1.85569 13.5696C2.09767 13.7969 2.41717 13.9235 2.74918 13.9235H9.43243C9.76443 13.9235 10.0839 13.7969 10.3259 13.5696C10.5679 13.3422 10.7141 13.0312 10.7349 12.6998L11.3115 3.48089H0.870115L1.44671 12.6998Z" fill="#373867"/>
</svg>
