<?xml version="1.0" encoding="utf-8"?>
<!-- Generator: Adobe Illustrator 24.0.2, SVG Export Plug-In . SVG Version: 6.00 Build 0)  -->
<svg version="1.1" id="Capa_1" xmlns="http://www.w3.org/2000/svg" xmlns:xlink="http://www.w3.org/1999/xlink" x="0px" y="0px"
	 viewBox="0 0 265.5 83.6" style="enable-background:new 0 0 265.5 83.6;" xml:space="preserve">
<style type="text/css">
	.st0{fill:#366570;}
	.st1{fill:#5ECC9D;}
	.st2{enable-background:new    ;}
	.st3{fill:#CCEDBE;}
</style>
<g>
	<path class="st0" d="M49.2,66.9c-0.1-2.4-0.9-4.3-2.7-6c-0.9-0.8-1.7-1.6-2.6-2.4c-0.5-0.5-0.6-1.9-1.9-1.3
		c-0.9,0.5-0.6,1.5-0.6,2.4c-0.2,3.6-0.3,7.1-0.5,10.8c-0.1,1.9-2.3,3.7-4.1,3.2c-1.9-0.5-0.8-2.1-0.7-3.3c0.3-3,1-6,0.6-8.9
		c-0.2-1.4-0.5-3.2-2.4-3.2c-1.7,0-2.3,1.6-2.6,3.1c-0.2,0.6-0.2,1.4-0.1,2.1c0.3,2.4,0.5,5,0.8,7.4c0.1,1,0.6,2.3-0.5,2.8
		c-1.2,0.5-2.4-0.1-3.3-0.8c-0.8-0.5-0.7-1.5-0.8-2.4c-0.5-3.5-0.2-7.1-0.4-10.8c-0.1-0.8,0.2-1.9-0.8-2.4c-1.2-0.5-1.3,0.8-1.9,1.3
		c-0.6,0.5-1.3,1.2-1.9,1.7c-2.4,2.1-3.7,4.6-3.6,7.9c0.1,1.9-0.1,3.8,0,5.7c0.1,1.5-0.6,3.9,0.5,4.3c1.4,0.5,2.4-1.6,3.7-2.6
		c0.9-0.6,1.6-2.4,2.6-1.7c2.7,1.7,7.8,0.3,8,6c1.1-1.6,0.6-3.4,2.5-4.2c6-2.3,6-2.3,10.9,1.9c0.4,0.3,0.7,0.9,1.3,0.7
		c0.7-0.3,0.5-1,0.5-1.5C49.2,73.4,49.2,70.1,49.2,66.9z"/>
</g>
<g>
	<path class="st1" d="M40.7,25.9c-3.8-3.1-9.3-3.1-13.1,0.1c-3.9,3.2-5,8.7-2.4,13.3c0.6,1.2,0.9,2.4,0.8,3.7c-0.2,3-0.3,6-0.5,8.9
		c-0.1,0.6-0.1,1.5,0.9,1.6c1,0,0.7-1,0.8-1.5c0.2-1.5,0.4-3.1,0.3-4.6c-0.2-2.4,1.1-3.2,3.3-3.8c0,3.2-0.1,6.1,0,9.1
		c0,0.9-0.5,2.3,0.9,2.3c1.5,0.1,0.9-1.4,0.9-2.2c0.1-5.2,0.1-10.5,0.1-15.7c0-3.3,0-6.7,0-10c0-0.9,0.2-1.5,1.3-1.6
		c0.6,0,1.5-0.2,1.6,0.8c0.2,0.6,0.1,1.4,0.1,2.1c0,8.2,0,16.5,0.1,24.8c0,0.7-0.5,2,0.8,2c1.3-0.1,0.9-1.3,1-2
		c0.1-2.4,0-4.8,0.1-7.2c0-0.7-0.4-1.8,0.5-2c0.5-0.2,1.4,0.5,2,0.9c0.9,0.5,0.7,1.3,0.8,2c0.1,1.6,0.1,3.3,0.3,4.9
		c0.1,0.7-0.5,2.1,0.9,2c1.2-0.1,0.8-1.4,0.8-2.2c-0.1-2.2-0.3-4.2-0.4-6.4c-0.1-2-0.3-4,0.8-6C45.8,34.4,44.6,28.9,40.7,25.9z
		 M29.1,41.1c-4.7-3-4.7-11.3,0.1-14.2c1-0.6,1.6-0.5,1.6,0.8c0,2.1,0,4.2,0,6.2s0,4.2,0,6.2C30.7,41.4,30.4,42,29.1,41.1z
		 M39.1,41.2c-1.1,0.8-1.5,0.4-1.5-0.8c0-2.1,0-4.2,0-6.4c0-2.1,0-4.2,0-6.1c0-1.3,0.5-1.5,1.5-0.8c2.4,1.7,3.7,4.1,3.7,7
		C42.8,37,41.6,39.4,39.1,41.2z"/>
</g>
<g>
	<path class="st0" d="M31.3,21.1c2-0.6,4.1-0.6,6.1,0.1c1,0.3,1.6,0,1.4-1c-0.9-5-2.4-9.8-4.6-14.4c-2.3,4.5-3.4,9.2-4.5,14.1
		C29.4,21,29.9,21.5,31.3,21.1z"/>
</g>
<g class="st2">
	<path class="st3" d="M78.7,30.8h-8.6v-2.2h19.7v2.2h-8.6V53h-2.6V30.8z"/>
	<path class="st3" d="M97.9,35.5c1.1-0.6,2.6-0.9,4.3-0.9v2.4l-0.6,0c-1.9,0-3.4,0.6-4.5,1.8c-1.1,1.2-1.6,2.8-1.6,5V53H93V34.7h2.4
		v3.6C95.9,37,96.8,36.1,97.9,35.5z"/>
	<path class="st3" d="M118.5,36.3c1.3,1.2,1.9,3,1.9,5.3V53h-2.4v-2.9c-0.6,1-1.4,1.7-2.5,2.2c-1.1,0.5-2.4,0.8-3.8,0.8
		c-2,0-3.7-0.5-4.9-1.5c-1.2-1-1.8-2.3-1.8-3.9c0-1.6,0.6-2.8,1.7-3.8s2.9-1.4,5.4-1.4h5.8v-1.1c0-1.6-0.4-2.8-1.3-3.6
		c-0.9-0.8-2.2-1.2-3.9-1.2c-1.2,0-2.3,0.2-3.3,0.6c-1.1,0.4-2,0.9-2.8,1.6l-1.1-1.8c0.9-0.8,2-1.4,3.3-1.8c1.3-0.4,2.7-0.6,4.1-0.6
		C115.4,34.5,117.3,35.1,118.5,36.3z M115.8,50.3c1-0.6,1.7-1.6,2.2-2.8v-3h-5.7c-3.1,0-4.7,1.1-4.7,3.3c0,1.1,0.4,1.9,1.2,2.5
		c0.8,0.6,1.9,0.9,3.4,0.9C113.6,51.2,114.8,50.9,115.8,50.3z"/>
	<path class="st3" d="M130,52c-1.4-0.8-2.5-1.9-3.4-3.3s-1.2-3-1.2-4.8c0-1.8,0.4-3.4,1.2-4.8s1.9-2.5,3.4-3.3s3-1.2,4.9-1.2
		c1.6,0,3,0.3,4.2,0.9c1.2,0.6,2.2,1.5,2.9,2.7l-1.8,1.3c-0.6-0.9-1.4-1.6-2.3-2c-0.9-0.5-1.9-0.7-3-0.7c-1.3,0-2.5,0.3-3.6,0.9
		c-1.1,0.6-1.9,1.4-2.5,2.5c-0.6,1.1-0.9,2.3-0.9,3.7c0,1.4,0.3,2.7,0.9,3.7c0.6,1.1,1.4,1.9,2.5,2.5c1.1,0.6,2.2,0.9,3.6,0.9
		c1.1,0,2.1-0.2,3-0.7c0.9-0.4,1.7-1.1,2.3-2l1.8,1.3c-0.7,1.2-1.7,2.1-3,2.7c-1.3,0.6-2.7,0.9-4.2,0.9C133,53.2,131.4,52.8,130,52z
		"/>
	<path class="st3" d="M153.4,43.8l-4.3,4V53h-2.5V27.2h2.5v17.5l10.9-10h3.1l-7.8,7.5l8.6,10.8h-3L153.4,43.8z"/>
</g>
<g class="st2">
	<path class="st1" d="M185.2,40.8h2.5v9.3c-1.1,1-2.5,1.8-4,2.3c-1.6,0.5-3.2,0.8-4.9,0.8c-2.4,0-4.6-0.5-6.6-1.6
		c-1.9-1.1-3.5-2.5-4.6-4.4c-1.1-1.9-1.7-4-1.7-6.4s0.6-4.5,1.7-6.4c1.1-1.9,2.6-3.4,4.6-4.4c2-1.1,4.2-1.6,6.6-1.6
		c1.9,0,3.6,0.3,5.1,0.9s2.9,1.5,3.9,2.6l-1.6,1.6c-1.9-1.9-4.4-2.9-7.3-2.9c-2,0-3.8,0.4-5.3,1.3c-1.6,0.9-2.8,2.1-3.7,3.6
		c-0.9,1.5-1.4,3.3-1.4,5.2s0.5,3.6,1.4,5.2s2.1,2.7,3.7,3.6c1.6,0.9,3.4,1.3,5.3,1.3c2.5,0,4.6-0.6,6.4-1.9V40.8z"/>
	<path class="st1" d="M210.4,44.6h-15.3c0.1,1.9,0.9,3.4,2.2,4.6c1.3,1.2,3,1.8,5,1.8c1.1,0,2.2-0.2,3.1-0.6c1-0.4,1.8-1,2.5-1.8
		l1.4,1.6c-0.8,1-1.8,1.7-3,2.2s-2.6,0.8-4,0.8c-1.9,0-3.5-0.4-5-1.2s-2.6-1.9-3.4-3.3c-0.8-1.4-1.2-3-1.2-4.8
		c0-1.8,0.4-3.4,1.2-4.8c0.8-1.4,1.8-2.5,3.2-3.3c1.4-0.8,2.9-1.2,4.6-1.2c1.7,0,3.2,0.4,4.6,1.2c1.3,0.8,2.4,1.9,3.2,3.3
		c0.8,1.4,1.1,3,1.1,4.8L210.4,44.6z M197.1,38.4c-1.2,1.1-1.9,2.6-2,4.4h13c-0.2-1.8-0.8-3.3-2-4.4c-1.2-1.1-2.7-1.7-4.5-1.7
		C199.8,36.7,198.3,37.2,197.1,38.4z"/>
	<path class="st1" d="M230.3,36.5c1.4,1.3,2,3.3,2,5.8V53h-2.5V42.6c0-1.9-0.5-3.4-1.4-4.4s-2.3-1.5-4.1-1.5c-2,0-3.5,0.6-4.7,1.8
		c-1.1,1.2-1.7,2.8-1.7,4.9V53h-2.5V34.7h2.4v3.4c0.7-1.1,1.6-2,2.8-2.6c1.2-0.6,2.6-0.9,4.2-0.9C227.1,34.5,228.9,35.2,230.3,36.5z
		"/>
	<path class="st1" d="M239,30.2c-0.3-0.3-0.5-0.8-0.5-1.3c0-0.5,0.2-0.9,0.5-1.2c0.3-0.3,0.8-0.5,1.3-0.5s0.9,0.2,1.3,0.5
		c0.3,0.3,0.5,0.7,0.5,1.2c0,0.5-0.2,0.9-0.5,1.3c-0.3,0.3-0.8,0.5-1.3,0.5S239.4,30.5,239,30.2z M239,34.7h2.5V53H239V34.7z"/>
	<path class="st1" d="M260.1,53l-5.8-7.7l-5.9,7.7h-2.8l7.2-9.4l-6.9-8.9h2.8l5.5,7.2l5.5-7.2h2.7l-6.9,8.9l7.3,9.4H260.1z"/>
</g>
<g>
	<path class="st3" d="M52.5,66.5c0,0.4,0.1,0.6,0.1,1l0,0c0,0.7,0,1.5,0,2.3c5-3.6,8.9-8.6,11.4-14.3c-1.1,0.2-2.1,0.4-3.2,0.5
		C58.7,60.2,55.8,63.7,52.5,66.5z"/>
</g>
<g>
	<path class="st3" d="M41.3,9.5c0.4,1,0.7,2,1,3c6.5,1.7,12.1,6,15.9,11.8c1.1,0.3,2.3,0.5,3.3,0.7C57.1,16.9,49.8,11.1,41.3,9.5z"
		/>
</g>
<g>
	<path class="st3" d="M7.1,56.1c-1-0.2-2-0.4-2.9-0.5c2.3,5.9,6,10.9,10.6,14.6c0-0.7,0-1.5,0-2.3l0,0c0-0.4,0-0.7,0.1-1
		C11.6,63.9,9,60.3,7.1,56.1z"/>
</g>
<g>
	<path class="st3" d="M25.7,12.7c0.4-1,0.7-2,1.1-3c-8.8,1.7-16.3,7.4-21,15.3c1.1-0.3,2.3-0.5,3.4-0.8
		C13.4,18.5,19.1,14.4,25.7,12.7z"/>
</g>
</svg>
